<?xml version="1.0" encoding="UTF-8"?>
<!DOCTYPE svg PUBLIC "-//W3C//DTD SVG 1.1//EN" "http://www.w3.org/Graphics/SVG/1.1/DTD/svg11.dtd">
<!-- Creator: CorelDRAW X7 -->
<svg xmlns="http://www.w3.org/2000/svg" xml:space="preserve" width="86.6987mm" height="86.6987mm" version="1.1" style="shape-rendering:geometricPrecision; text-rendering:geometricPrecision; image-rendering:optimizeQuality; fill-rule:evenodd; clip-rule:evenodd"
viewBox="0 0 3867 3867"
 xmlns:xlink="http://www.w3.org/1999/xlink">
 <defs>
  <style type="text/css">
   <![CDATA[
    .fil4 {fill:none}
    .fil1 {fill:#FEFEFE}
    .fil0 {fill:#00AFEF}
    .fil2 {fill:#00AFEF}
    .fil3 {fill:#00AFEF;fill-rule:nonzero}
   ]]>
  </style>
 </defs>
 <g id="Layer_x0020_1">
  <metadata id="CorelCorpID_0Corel-Layer"/>
  <g id="_447867896">
   <g>
    <polygon class="fil0" points="1567,1011 1772,1011 1964,2945 1375,2955 "/>
    <path class="fil1" d="M1659 1011l20 0 1 110 -22 0 1 -110zm22 151l1 156 -26 0 2 -156 23 0zm1 196l2 157 -30 0 2 -157 26 0zm2 197l2 156 -33 0 1 -156 30 0zm2 197l1 156 -36 0 1 -156 34 0zm2 196l1 156 -40 0 1 -156 38 0zm1 197l2 156 -44 0 1 -156 41 0zm2 196l1 157 -47 0 1 -157 45 0zm2 197l1 156 -51 0 2 -156 48 0zm1 197l2 214 -55 1 2 -215 51 0z"/>
    <g>
     <path class="fil1" d="M1641 2967l3 -652c2,-360 295,-650 655,-648 360,1 651,295 649,655 -2,360 -295,650 -655,648l-652 -3zm336 -332l318 2c175,0 318,-141 319,-317 1,-176 -141,-319 -316,-320 -176,0 -319,141 -320,317l-1 318z"/>
    </g>
    <path class="fil2" d="M1937 2674l2 -357c1,-198 161,-357 359,-356 197,1 357,162 356,359 -1,198 -162,357 -360,356l-357 -2zm-256 254l612 3c339,2 614,-271 616,-610 1,-338 -272,-613 -610,-615 -338,-2 -614,271 -615,610l-3 612z"/>
    <path class="fil0" d="M1658 965c28,2 51,-89 59,-216l277 -122c27,-12 61,-31 60,-52l0 0c-158,45 -280,47 -331,56 -28,5 -31,-71 -49,-184l92 -40c9,-4 21,-11 21,-18l0 0 -116 33c0,-2 0,5 0,5l0 0 0 0 0 -18c-1,-24 -46,-26 -46,-2l0 18c0,0 0,-7 0,-5l-104 -18 0 0c0,8 10,17 22,20l78 24c-10,50 -17,100 -31,169 -14,66 -164,23 -304,-1l0 0c1,21 29,47 63,57l244 74c11,127 37,219 65,220z"/>
    <path class="fil2" d="M316 1746c0,-872 707,-1578 1579,-1578 872,0 1578,706 1578,1578 0,872 -706,1579 -1578,1579 -872,0 -1579,-707 -1579,-1579zm3249 0c0,-922 -748,-1670 -1670,-1670 -923,0 -1671,748 -1671,1670 0,923 748,1671 1671,1671 922,0 1670,-748 1670,-1671z"/>
    <path class="fil3" d="M2129 1291c7,2 12,5 17,9 4,4 8,10 11,18 3,7 4,18 4,31 -1,10 -4,21 -9,32 -4,11 -10,22 -18,32 -8,10 -16,19 -26,27 -9,9 -19,15 -30,19 -10,5 -20,7 -31,8 -10,0 -20,-3 -29,-9 -2,-2 -4,-4 -6,-7 -2,-2 -3,-5 -5,-9 -1,-3 -2,-7 -1,-12 0,0 0,-1 0,-2 1,-1 1,-1 2,-2 1,-1 1,-1 2,-1 2,0 3,1 4,3 1,2 2,5 4,8 2,3 4,6 7,9 3,3 7,5 12,6 5,1 11,0 20,-5 9,-4 18,-11 27,-20 10,-9 18,-19 26,-32 9,-13 14,-27 18,-43 1,-6 1,-11 1,-16 0,-5 0,-9 -1,-14 -1,-4 -3,-7 -5,-10 -2,-3 -6,-3 -12,-1 -5,2 -11,6 -19,12 -7,5 -15,13 -24,23 -9,10 -17,21 -26,35 -3,9 -5,16 -6,22 -1,7 -2,11 -2,13 0,6 -1,9 -2,11 -2,2 -4,2 -6,2 -3,-1 -5,-2 -7,-4 -3,-2 -5,-4 -6,-7 -1,-1 -2,-3 -3,-6 0,-3 0,-6 0,-9 1,-3 1,-6 2,-10 4,-23 9,-45 16,-68 8,-22 15,-42 22,-61 8,-19 15,-35 21,-49 6,-14 11,-23 13,-29 3,-5 6,-9 9,-12 4,-3 8,-5 12,-6 4,-1 8,-1 12,-1 3,1 7,1 9,2 4,1 6,3 7,6 1,3 1,6 0,8 -1,2 -2,3 -3,5 -1,0 -2,1 -2,1 -4,4 -7,7 -9,11 -3,4 -5,7 -7,10 -3,3 -5,7 -6,11 -12,21 -22,42 -31,64 -8,21 -16,41 -22,60 5,-6 10,-13 16,-20 6,-7 12,-13 19,-18 7,-6 13,-10 20,-13 7,-3 14,-3 21,-2z"/>
    <path id="1" class="fil3" d="M2296 1513c1,2 0,4 0,6 -1,2 -1,3 -2,4 -1,2 -2,2 -5,2 -1,0 -3,-1 -4,-2 0,0 -1,-1 -2,-2 0,-1 -2,-2 -3,-3 -2,-1 -5,-2 -10,-4 -5,-1 -11,-3 -19,-4 -7,-1 -16,-2 -27,-3 -11,-1 -23,-1 -37,-1 -6,1 -11,1 -17,1 -6,1 -12,1 -18,1 -5,8 -10,16 -16,23 -6,6 -12,12 -19,17 -6,5 -13,9 -20,12 -7,3 -15,4 -23,3 0,0 -1,0 -2,0 -1,-1 -2,-1 -3,-1 -1,0 -2,0 -3,-1 -4,-1 -6,-3 -7,-5 -2,-3 -3,-4 -3,-5 -1,-2 -1,-5 -2,-9 0,-3 1,-7 3,-11 2,-4 5,-9 9,-13 5,-5 11,-10 19,-15 11,-7 25,-12 42,-17 3,-4 6,-11 10,-20 4,-8 8,-18 13,-28 4,-10 8,-20 13,-30 4,-10 8,-19 11,-27 5,-15 9,-27 12,-38 3,-10 5,-18 6,-24 2,-8 2,-14 3,-18 -1,-1 -1,-1 0,-2 0,-2 1,-3 3,-4 3,-2 7,-2 11,0 4,3 7,6 10,11 3,6 5,14 4,22 -1,9 -3,16 -4,23 -2,6 -4,13 -7,23 -2,9 -6,19 -10,30 -4,11 -9,23 -14,36 -6,13 -12,26 -20,39 11,-2 21,-3 32,-3 11,0 21,0 31,1 9,1 18,2 27,4 8,2 16,5 22,8 2,2 5,4 7,7 3,2 4,4 6,7 2,3 3,6 3,10zm-226 30c2,1 4,1 6,2 2,0 5,-1 9,-3 3,-1 7,-4 11,-8 4,-4 9,-10 14,-18 -8,2 -16,6 -23,10 -7,5 -12,10 -17,17zm136 -286c0,-3 1,-5 1,-7 1,-2 2,-4 2,-5 1,-2 2,-3 3,-5 3,-6 8,-9 15,-11 6,-1 11,-1 15,0 3,1 5,3 6,4 1,2 2,4 1,6 0,2 0,4 -1,5 -1,0 -1,1 -1,2 -4,5 -7,9 -9,14 -2,5 -3,9 -4,12 -1,1 -1,2 -2,4 -1,2 -2,3 -3,5 -1,2 -2,3 -4,4 -1,1 -3,1 -5,1 -3,-1 -6,-2 -8,-3 -1,-1 -3,-3 -4,-4 -1,-1 -2,-3 -2,-5 -1,-2 -1,-4 -1,-6 0,-3 0,-5 0,-7 1,-1 1,-3 1,-4z"/>
    <path id="2" class="fil3" d="M2347 1206c-1,1 -2,2 -3,4 -1,1 -2,3 -3,5 0,1 -1,3 -2,5 13,-1 29,-1 46,1 17,1 37,4 59,9 3,0 5,1 7,2 2,1 4,2 5,3 2,2 2,3 2,4 0,1 -1,2 -2,3 -2,1 -4,1 -6,0 -12,-1 -24,-1 -37,-2 -11,0 -25,0 -40,1 -15,1 -31,3 -48,5 -11,23 -21,46 -30,68 -8,23 -15,43 -21,62 -6,18 -10,34 -13,47 -3,12 -4,20 -4,24 0,5 -1,9 -3,11 -1,1 -3,2 -5,1 -3,0 -5,-1 -7,-4 -3,-2 -5,-4 -6,-6 -2,-2 -3,-4 -3,-7 0,-2 0,-5 0,-8 0,-3 1,-7 2,-11 2,-13 5,-27 9,-41 4,-15 9,-30 13,-45 5,-14 10,-29 16,-43 5,-14 10,-27 15,-40 -2,1 -4,1 -6,2 -2,0 -4,1 -6,1 -5,2 -10,3 -13,3 -4,0 -6,0 -9,-1 -2,-1 -3,-3 -2,-7 2,-4 5,-9 9,-13 4,-3 9,-7 14,-10 6,-3 13,-5 22,-6 1,0 1,0 2,0 1,0 1,0 2,0 4,-9 7,-17 10,-24 3,-6 5,-11 6,-14 3,-5 6,-9 10,-12 3,-3 7,-5 11,-6 4,-1 8,-1 12,-1 4,1 7,1 10,2 3,1 5,3 6,6 1,3 1,6 0,8 0,2 -2,3 -3,5 -1,0 -1,1 -2,1 -6,6 -10,12 -14,18z"/>
    <path id="3" class="fil3" d="M2381 1350c0,-2 1,-4 2,-7 1,-2 2,-5 3,-7 1,-3 2,-6 3,-9 1,-1 2,-3 3,-5 2,-2 5,-3 8,-2 1,0 3,1 6,3 2,1 5,3 7,6 2,3 4,6 5,10 1,5 0,10 -2,16 -1,2 -2,5 -3,9 -2,4 -3,9 -5,13 -1,4 -3,8 -4,12 -2,4 -3,7 -4,9 -5,16 -9,29 -10,37 -1,9 -1,14 1,15 0,0 1,1 1,1 1,0 1,1 1,1 0,0 1,1 1,1 1,2 1,4 0,6 -2,3 -5,5 -11,6 -5,1 -10,0 -15,-3 -1,-1 -2,-2 -3,-3 -1,-2 -1,-3 -2,-4 -1,-2 -1,-3 -2,-5 -1,-2 -1,-4 -2,-6 0,-2 0,-4 -1,-6 0,-1 0,-3 0,-5 0,-3 1,-8 2,-15 -6,9 -13,17 -21,23 -8,6 -16,9 -24,8 -6,-2 -11,-4 -15,-7 -3,-3 -6,-7 -9,-11 1,1 1,3 2,4 0,1 1,2 1,4 1,4 3,8 6,12 1,1 1,1 1,1l1 2 0 1 1 0 1 2 5 5c4,4 8,7 12,10 2,2 4,3 6,4 3,1 5,3 8,4 5,2 10,4 16,6 5,1 11,3 17,4l17 2c1,0 3,0 4,1l4 0c1,0 3,0 5,0 1,0 3,0 4,0 11,1 22,1 32,0 0,1 0,1 0,1 -1,0 -1,0 -2,0 0,0 -1,0 -1,0l-5 1c-1,0 -2,1 -3,1 -1,0 -3,0 -4,0l-8 1c-2,0 -3,0 -5,0 -2,0 -3,1 -5,1 -4,0 -8,0 -12,0 -4,0 -9,0 -13,-1 -3,0 -5,0 -8,0 -2,-1 -4,-1 -7,-1l-16 -5c-3,0 -5,-1 -8,-2 -3,-1 -6,-3 -8,-4l-2 -1 -2 -1 -3 -2 -2 -1 -1 0 0 -1c-1,-1 -2,-1 -2,-2l-2 -1 -2 -2 -3 -1 -3 -4c0,0 -1,0 -1,-1 0,0 0,0 -1,0l-6 -9c-2,-2 -4,-6 -5,-9 -2,-3 -3,-6 -4,-10 -2,-6 -3,-14 -3,-22 0,0 0,-1 0,-1 0,0 0,-1 0,-1l0 -1c0,-2 0,-3 0,-4 0,-2 0,-3 0,-4l0 -3c0,-4 0,-9 1,-14 1,-5 2,-9 3,-13 1,-4 2,-9 3,-13 3,-9 6,-17 9,-26 3,-9 7,-17 10,-24 3,-6 7,-11 11,-17 4,-6 9,-10 16,-13 5,-1 9,-2 14,0 4,1 7,3 9,6 0,2 0,3 0,5 -1,1 -1,1 -1,2 -3,3 -7,7 -10,13 -3,5 -7,12 -11,21 -4,9 -8,20 -13,34 -2,5 -3,10 -5,15 -1,4 -2,8 -3,13 -2,4 -2,8 -3,12 -1,7 -1,12 -1,15 0,3 1,6 2,7 1,2 3,3 4,3 4,0 8,-2 12,-5 4,-3 8,-7 12,-12 4,-6 8,-11 12,-18 3,-6 7,-12 10,-18 3,-6 6,-11 8,-16 2,-5 3,-8 5,-11z"/>
    <path id="4" class="fil3" d="M2621 1206c-1,1 -2,2 -3,4 -1,1 -2,3 -3,5 -1,1 -2,3 -2,5 13,-1 28,-1 46,1 17,1 36,4 59,9 3,0 5,1 7,2 2,1 4,2 5,3 1,2 2,3 2,4 -1,1 -1,2 -3,3 -1,1 -3,1 -5,0 -12,-1 -24,-1 -37,-2 -12,0 -25,0 -40,1 -15,1 -31,3 -49,5 -11,23 -20,46 -29,68 -8,23 -16,43 -21,62 -6,18 -10,34 -13,47 -3,12 -4,20 -4,24 0,5 -1,9 -3,11 -2,1 -4,2 -6,1 -2,0 -4,-1 -7,-4 -2,-2 -4,-4 -6,-6 -1,-2 -2,-4 -2,-7 0,-2 0,-5 0,-8 0,-3 1,-7 2,-11 2,-13 5,-27 9,-41 4,-15 8,-30 13,-45 5,-14 10,-29 15,-43 6,-14 11,-27 16,-40 -2,1 -4,1 -6,2 -2,0 -4,1 -6,1 -5,2 -10,3 -14,3 -3,0 -6,0 -8,-1 -2,-1 -3,-3 -2,-7 2,-4 5,-9 9,-13 4,-3 8,-7 14,-10 6,-3 13,-5 21,-6 1,0 2,0 3,0 0,0 1,0 2,0 4,-9 7,-17 10,-24 3,-6 5,-11 6,-14 3,-5 6,-9 9,-12 4,-3 8,-5 12,-6 4,-1 8,-1 12,-1 4,1 7,1 10,2 3,1 5,3 6,6 1,3 1,6 0,8 -1,2 -2,3 -3,5 -1,0 -2,1 -2,1 -6,6 -10,12 -14,18z"/>
    <path id="5" class="fil3" d="M2632 1286c2,0 4,1 5,0 2,0 3,0 4,0 1,-1 2,-1 4,-1 0,0 1,0 3,-1 2,0 5,0 7,1 2,0 3,1 5,2 2,1 3,3 5,6 2,3 3,6 3,10 0,3 -1,7 -2,10 0,3 -1,6 -2,9 -1,2 -2,4 -2,5 -5,10 -10,21 -17,32 -6,12 -12,24 -17,35 -4,11 -8,21 -9,29 -2,9 0,15 6,19 0,0 0,0 1,0 1,1 1,2 1,3 0,1 -1,3 -2,4 -1,1 -3,2 -6,2 -4,1 -8,0 -13,-2 -4,-2 -8,-6 -11,-11 -3,-5 -5,-12 -6,-20 0,-8 2,-17 6,-27 3,-10 7,-19 12,-28 5,-9 9,-17 14,-25 4,-7 8,-14 12,-19 3,-5 6,-9 7,-11 1,-3 1,-5 0,-7 -2,-2 -5,-3 -9,-2 -3,0 -5,0 -7,-1 -6,9 -13,17 -19,24 -6,8 -12,15 -18,21 0,0 -1,1 -2,1 -1,1 -2,-1 -2,-4 0,-3 1,-7 2,-11 2,-4 3,-7 4,-10 0,0 0,0 0,0 0,0 0,-1 1,-2 3,-3 6,-6 9,-10 3,-4 7,-8 11,-13 -6,-2 -9,-7 -10,-12 -1,-6 -1,-12 1,-19 1,-7 4,-13 8,-20 4,-7 8,-13 13,-17 5,-5 10,-8 14,-10 5,-2 9,-1 12,3 3,3 5,7 6,12 0,5 -1,11 -2,17 -2,6 -5,12 -8,18 -4,7 -8,13 -12,20zm-10 -8c4,-6 7,-11 10,-16 3,-5 5,-10 6,-14 1,-6 1,-8 -1,-7 -1,1 -3,3 -6,7 -2,4 -5,9 -7,14 -2,6 -3,11 -2,16z"/>
    <path id="6" class="fil3" d="M2774 1350c0,5 -1,10 -2,14 -2,5 -4,10 -7,16 -6,13 -10,23 -12,30 -2,7 -1,12 1,13 0,0 0,0 1,0 0,0 1,0 1,0 0,0 1,1 2,1 1,0 2,0 4,1 1,1 2,2 2,4 0,1 0,3 -2,5 -5,5 -11,6 -17,5 -6,-1 -10,-4 -14,-7 -3,-4 -5,-9 -6,-14 0,-5 -1,-9 -1,-12 -5,5 -10,10 -15,15 -5,6 -10,10 -15,14 -5,4 -10,7 -15,10 -5,2 -9,4 -12,4 -7,0 -13,-3 -17,-8 -4,-4 -6,-10 -7,-18 0,3 -1,5 -1,7 0,2 0,4 0,6 0,2 0,5 0,7 0,3 1,5 1,8 0,1 1,2 1,4 0,0 0,1 1,2 0,0 0,0 0,0 0,1 0,1 0,1 0,2 1,3 2,4 0,1 1,2 1,4l1 1 1 2c1,0 1,1 1,1 1,1 1,1 2,2l0 1 2 2c1,0 1,1 1,1l2 2 2 1 2 1c0,1 1,2 3,2 0,1 1,1 1,1l1 0 1 1 2 1 1 0c1,0 1,0 1,1 0,0 0,0 0,0 3,1 6,2 9,2 2,1 5,1 8,2 1,0 3,0 5,0l2 1 2 0c1,0 2,0 4,0l5 0c2,0 5,0 8,0 3,0 6,0 9,0 6,-1 12,-1 17,-2 6,-1 11,-2 17,-2 0,0 -1,0 -1,0 -1,0 -1,0 -2,0 0,0 -1,1 -2,1l-4 1 -7 2 -4 1c-1,0 -2,1 -4,1 -2,1 -3,1 -5,1 -2,0 -4,1 -5,1 -4,1 -8,1 -12,2 -5,0 -9,0 -14,0 -5,0 -10,-1 -15,-1 -6,-1 -11,-3 -17,-5 0,0 -1,0 -1,-1 0,0 0,0 0,0 0,0 0,0 -1,0 -1,-1 -1,-1 -2,-1l-1 -1c0,0 0,0 0,0 0,0 0,0 -1,0l-1 -1 0 0 -1 0c0,-1 -1,-1 -2,-2 -1,0 -1,-1 -2,-1 0,-1 -1,-1 -1,-1l0 -1 -2 -1c-1,-2 -3,-3 -4,-5 -1,-1 -2,-2 -2,-4 -2,-1 -2,-2 -3,-4 -1,-1 -1,-3 -2,-4 0,-2 -1,-4 -1,-6 -1,-1 -1,-3 -2,-5 0,-1 0,-3 0,-5 0,-2 -1,-4 -1,-5 0,-7 1,-15 3,-22 2,-6 4,-13 6,-20 2,-9 5,-17 9,-26 4,-9 9,-17 14,-25 5,-9 11,-16 17,-24 6,-7 12,-13 19,-18 6,-5 12,-9 17,-12 6,-2 11,-3 16,-3 8,2 14,5 19,9 4,4 7,8 9,12 2,4 2,8 2,12 -1,3 -2,5 -5,5 -2,0 -3,0 -4,0 -1,-1 -1,-2 -2,-3 0,-1 0,-2 0,-3 -1,-1 -1,-2 -2,-2 -1,-1 -2,-2 -4,-2 -2,0 -4,1 -7,2 -2,2 -6,4 -9,8 -4,3 -9,8 -14,13 -5,6 -10,14 -16,23 -6,9 -11,17 -16,26 -4,8 -7,16 -9,22 -3,6 -3,9 0,9 1,1 3,-1 7,-3 3,-2 7,-6 12,-10 5,-4 10,-9 15,-14 5,-6 10,-11 15,-17 5,-6 10,-11 14,-17 3,-5 6,-10 9,-14 0,-2 0,-3 0,-4 0,-1 0,-2 0,-3 -1,-1 -1,-2 0,-2 0,-2 1,-3 2,-4 2,-1 4,-1 7,-1 2,-1 4,0 6,1 2,1 4,3 5,5 2,2 2,5 3,9z"/>
    <path id="7" class="fil3" d="M2882 1254c6,-3 11,-4 16,-3 5,0 9,2 13,4 3,3 6,6 7,9 2,3 3,6 2,8 0,2 -1,4 -2,5 -1,0 -2,1 -4,1 -1,0 -3,-1 -4,-2 -5,-1 -10,0 -16,4 -6,4 -12,10 -18,17 -6,8 -12,17 -19,27 -6,10 -12,20 -18,31 -13,25 -27,54 -41,87 -1,2 -2,4 -2,5 -1,1 -2,3 -2,4 -3,4 -5,6 -8,5 -3,0 -6,-1 -9,-3 -3,-2 -5,-5 -6,-9 -1,-4 -1,-8 -1,-11 0,-4 1,-8 1,-11 1,-3 2,-5 2,-5 2,-8 3,-15 5,-21 1,-6 2,-10 3,-12 3,-17 4,-32 5,-44 1,-12 1,-23 1,-31 0,-10 -1,-18 -2,-25 -1,-1 -1,-2 -1,-3 0,-1 1,-3 2,-4 3,-2 7,-3 11,-2 5,2 9,4 12,8 5,6 8,13 9,21 1,7 1,15 1,22 0,15 -1,29 -3,43 7,-19 15,-35 21,-49 7,-14 13,-25 19,-35 6,-9 11,-16 15,-21 5,-5 8,-8 11,-10z"/>
    <path id="8" class="fil3" d="M2962 1381c3,1 5,3 5,8 0,5 0,11 -2,16 -2,6 -5,12 -9,18 -4,6 -9,11 -15,15 -6,5 -12,8 -20,11 -8,2 -16,3 -26,2 -9,-1 -17,-4 -23,-8 -6,-4 -11,-10 -15,-17 -5,-8 -6,-19 -5,-33 1,-10 3,-19 6,-28 3,-8 8,-17 14,-26 6,-10 14,-19 25,-27 5,-4 11,-7 16,-10 5,-2 10,-3 15,-5 5,-1 10,0 15,2 8,3 13,8 15,16 1,7 1,13 -2,19 -1,3 -4,8 -7,13 -3,6 -8,11 -16,17 6,-3 12,-5 18,-7 7,-2 13,-5 20,-7 8,-2 16,-5 25,-7 8,-3 16,-5 25,-7 5,-1 9,-2 13,-3 5,-1 9,-2 14,-3 4,-1 9,-2 14,-2 5,-1 9,-1 14,-2 4,0 9,-1 14,-1 4,0 9,0 14,0 2,0 4,1 7,1 2,0 4,0 7,1l6 1c2,0 3,0 4,1 1,0 2,0 3,1l7 2 5 4c4,2 8,6 10,10 1,1 2,3 3,6l2 3c0,0 0,1 0,1 0,1 0,2 0,2l0 1c0,1 0,1 1,1 0,1 0,1 0,1l0 3 0 5 0 -1c0,0 0,0 -1,-1l0 -3c0,-1 0,-2 0,-3 -1,-1 -1,-3 -2,-4 0,-2 -1,-4 -1,-4 -1,-3 -2,-4 -3,-5l-1 -1 -3 -4c-2,-1 -3,-2 -5,-4 -5,-2 -9,-4 -15,-5 -5,-2 -11,-2 -17,-3 -7,0 -13,0 -21,0 -7,1 -14,2 -22,3 -8,1 -16,2 -25,4 -8,2 -17,4 -26,6 -9,2 -18,5 -27,7 -10,3 -20,6 -30,9 -10,3 -20,6 -31,10l-17 6c-6,2 -13,5 -22,7 -3,9 -5,17 -6,24 -1,6 0,12 1,17 2,6 6,10 13,12 6,2 12,2 18,0 6,-2 11,-5 16,-10 5,-4 9,-9 12,-15 3,-5 6,-11 7,-16 1,-1 2,-2 2,-4 1,-1 2,-3 3,-4 1,-2 2,-3 3,-4 1,-1 2,-2 3,-2zm-28 -39c2,-2 3,-4 3,-6 1,-2 0,-4 -1,-5 -1,-2 -2,-2 -5,-2 -2,0 -5,1 -9,3 -3,2 -7,5 -10,9 -3,3 -6,7 -9,10 -2,4 -4,7 -6,9 -1,3 -2,4 -1,4 2,0 5,0 9,-2 3,-1 7,-3 11,-5 3,-2 7,-5 10,-7 4,-3 6,-5 8,-8z"/>
    <path id="9" class="fil3" d="M3095 1168c4,1 6,3 8,5 2,3 3,5 2,9 0,1 -1,3 -2,5 -1,1 -2,2 -3,3 -3,4 -6,8 -9,12 -3,4 -5,7 -7,10 -2,3 -4,6 -6,9 -8,15 -15,30 -22,45 -7,15 -14,29 -20,44 -6,14 -11,28 -16,42 -5,13 -9,26 -13,37 -1,4 -2,8 -3,12 -1,4 -2,7 -4,11 -4,15 -4,24 -2,26l1 0 2 2c1,2 1,4 0,6 -2,3 -5,5 -9,6 -2,0 -4,0 -5,0 -2,-1 -3,-1 -4,-2 -2,-1 -3,-2 -4,-3 -2,-2 -4,-4 -4,-7 -1,-3 -2,-6 -2,-8 -1,-3 -1,-6 -1,-8 0,-6 1,-13 3,-21 1,-7 3,-15 5,-22 2,-8 4,-15 6,-22 6,-19 12,-38 19,-57 7,-19 14,-37 21,-53 6,-16 12,-29 17,-41 5,-11 8,-19 10,-23 3,-5 6,-9 9,-12 4,-3 8,-5 12,-6 4,-1 8,-1 12,-1 3,1 7,1 9,2z"/>
    <path class="fil3" d="M581 3631l-72 0 0 37 72 0c8,0 14,-1 18,-4 4,-3 6,-8 6,-14 0,-6 -2,-11 -6,-14 -4,-3 -10,-5 -18,-5zm8 60l-80 0 0 52 80 0c9,0 15,-2 20,-7 5,-4 7,-11 7,-19 0,-8 -2,-14 -7,-19 -5,-4 -11,-7 -20,-7zm-104 75l0 -157 96 0c16,0 29,3 37,10 8,6 12,16 12,29 0,6 -1,12 -4,17 -2,5 -6,9 -11,12 9,5 15,11 20,18 4,7 6,15 6,24 0,14 -4,26 -14,34 -10,9 -24,13 -41,13l-101 0z"/>
    <path id="1" class="fil3" d="M672 3699l25 0 0 16c0,12 3,20 10,25 8,5 19,8 34,8 16,0 27,-3 33,-9 5,-7 8,-19 8,-37l0 -93 25 0 0 101c0,22 -6,37 -16,47 -11,9 -28,14 -52,14 -23,0 -40,-5 -51,-13 -11,-9 -16,-22 -16,-39l0 -20z"/>
    <polygon id="2" class="fil3" points="896,3766 896,3630 829,3630 829,3608 987,3608 987,3630 920,3630 920,3766 "/>
    <path id="3" class="fil3" d="M1012 3609l24 0 0 101c0,15 4,25 11,30 7,5 21,8 42,8 21,0 36,-3 43,-8 7,-5 10,-15 10,-30l0 -101 25 0 0 107c0,19 -6,33 -18,42 -13,8 -32,13 -60,13 -28,0 -47,-4 -59,-13 -12,-8 -18,-22 -18,-42l0 -107z"/>
    <polygon id="4" class="fil3" points="1384,3766 1384,3630 1318,3630 1318,3608 1475,3608 1475,3630 1409,3630 1409,3766 "/>
    <path id="5" class="fil3" d="M1524 3674l84 0c9,0 15,-2 19,-5 5,-4 7,-9 7,-16 0,-7 -2,-12 -7,-16 -4,-4 -10,-6 -19,-6l-84 0 0 43zm0 23l0 69 -24 0 0 -157 108 0c16,0 29,4 38,11 9,8 13,19 13,33 0,11 -3,21 -10,29 -7,8 -17,13 -28,15l43 69 -26 0 -45 -69 -69 0z"/>
    <path id="6" class="fil3" d="M1724 3705l62 0 -31 -60 -31 60zm-57 61l80 -158 16 0 80 158 -26 0 -20 -40 -83 0 -21 40 -26 0z"/>
    <polygon id="7" class="fil3" points="1920,3766 1908,3766 1829,3608 1855,3608 1914,3726 1972,3608 1999,3608 "/>
    <polygon id="8" class="fil3" points="2030,3766 2030,3608 2177,3608 2177,3631 2054,3631 2054,3671 2135,3671 2135,3693 2054,3693 2054,3743 2184,3743 2184,3766 "/>
    <polygon id="9" class="fil3" points="2219,3766 2219,3608 2244,3608 2244,3743 2361,3743 2361,3766 "/>
    <path id="10" class="fil3" d="M2541 3705l62 0 -31 -60 -31 60zm-57 61l80 -158 16 0 81 158 -27 0 -20 -40 -83 0 -21 40 -26 0z"/>
    <path id="11" class="fil3" d="M2791 3705l0 -23 65 0 0 48c-9,13 -21,23 -36,30 -15,7 -31,11 -51,11 -29,0 -53,-8 -71,-24 -18,-15 -28,-35 -28,-59 0,-24 10,-44 28,-60 19,-16 42,-24 71,-24 18,0 34,3 49,10 14,6 25,15 35,27l-19 14c-7,-9 -16,-16 -27,-21 -12,-5 -24,-7 -38,-7 -21,0 -39,6 -53,17 -13,11 -20,26 -20,43 0,18 7,32 20,44 14,11 32,17 53,17 14,0 26,-3 38,-8 11,-5 19,-11 24,-18l0 -17 -40 0z"/>
    <polygon id="12" class="fil3" points="2901,3766 2901,3608 3048,3608 3048,3631 2925,3631 2925,3671 3006,3671 3006,3693 2925,3693 2925,3743 3055,3743 3055,3766 "/>
    <polygon id="13" class="fil3" points="3090,3766 3090,3608 3103,3608 3203,3719 3203,3608 3227,3608 3227,3766 3215,3766 3115,3656 3115,3766 "/>
    <path id="14" class="fil3" d="M3448 3727c-9,14 -21,25 -35,33 -15,7 -32,11 -50,11 -28,0 -50,-8 -68,-24 -18,-15 -27,-35 -27,-59 0,-24 9,-44 27,-60 18,-16 40,-24 68,-24 17,0 33,3 47,10 14,6 25,16 34,27l-20 14c-6,-9 -15,-16 -26,-21 -10,-5 -22,-7 -35,-7 -20,0 -37,6 -50,17 -13,12 -20,26 -20,43 0,18 7,32 20,43 13,12 30,18 50,18 14,0 26,-3 37,-9 11,-5 20,-14 28,-25l20 13z"/>
    <polygon id="15" class="fil3" points="3526,3766 3526,3685 3455,3608 3486,3608 3538,3664 3590,3608 3622,3608 3550,3685 3550,3766 "/>
   </g>
   <rect class="fil4" width="3867" height="3867"/>
  </g>
 </g>
</svg>
