<?xml version="1.0" encoding="UTF-8"?>
<!DOCTYPE svg PUBLIC "-//W3C//DTD SVG 1.1//EN" "http://www.w3.org/Graphics/SVG/1.1/DTD/svg11.dtd">
<!-- Creator: CorelDRAW X7 -->
<svg xmlns="http://www.w3.org/2000/svg" xml:space="preserve" width="21.6747mm" height="21.6747mm" version="1.1" style="shape-rendering:geometricPrecision; text-rendering:geometricPrecision; image-rendering:optimizeQuality; fill-rule:evenodd; clip-rule:evenodd"
viewBox="0 0 318 318"
 xmlns:xlink="http://www.w3.org/1999/xlink">
 <defs>
  <style type="text/css">
   <![CDATA[
    .fil4 {fill:none}
    .fil1 {fill:#FEFEFE}
    .fil0 {fill:#00AFEF}
    .fil2 {fill:#00AFEF}
    .fil3 {fill:#00AFEF;fill-rule:nonzero}
   ]]>
  </style>
 </defs>
 <g id="Layer_x0020_1">
  <metadata id="CorelCorpID_0Corel-Layer"/>
  <g id="_673149168">
   <g>
    <polygon class="fil0" points="129,83 146,83 162,242 113,243 "/>
    <path class="fil1" d="M136 83l2 0 0 9 -2 0 0 -9zm2 13l0 12 -2 0 0 -12 2 0zm0 16l0 13 -2 0 0 -13 2 0zm1 16l0 13 -3 0 0 -13 3 0zm0 16l0 13 -3 0 0 -13 3 0zm0 16l0 13 -3 0 0 -13 3 0zm0 16l0 13 -4 0 1 -13 3 0zm0 17l0 12 -4 0 0 -12 4 0zm0 16l0 13 -4 0 0 -13 4 0zm0 16l1 18 -5 0 0 -18 4 0z"/>
    <g>
     <path class="fil1" d="M135 244l0 -54c0,-29 24,-53 54,-53 30,0 54,24 53,54 0,30 -24,53 -53,53l-54 0zm28 -27l26 0c14,0 26,-12 26,-26 0,-15 -12,-26 -26,-26 -14,-1 -26,11 -26,26l0 26z"/>
    </g>
    <path class="fil2" d="M159 220l0 -29c1,-17 14,-30 30,-30 16,0 29,14 29,30 0,16 -13,29 -29,29l-30 0zm-21 21l51 0c27,0 50,-22 50,-50 0,-28 -22,-51 -50,-51 -28,0 -50,23 -51,50l0 51z"/>
    <path class="fil0" d="M136 79c3,1 5,-7 5,-17l23 -10c2,-1 5,-3 5,-5l0 0c-13,4 -23,4 -27,5 -3,0 -3,-6 -4,-15l7 -4c1,0 2,0 2,-1l0 0 -10 3c0,0 0,0 0,0l0 0 0 0 0 -1c0,-2 -3,-3 -3,-1l0 2c0,0 0,-1 0,0l-9 -2 0 0c0,1 1,1 2,2l6 2c-1,4 -1,8 -2,14 -1,5 -14,1 -25,-1l0 0c0,2 2,4 5,5l20 6c1,11 3,18 5,18z"/>
    <path class="fil2" d="M26 144c0,-72 58,-130 130,-130 72,0 130,58 130,130 0,71 -58,129 -130,129 -72,0 -130,-58 -130,-129zm267 0c0,-76 -61,-138 -137,-138 -76,0 -138,62 -138,138 0,76 62,137 138,137 76,0 137,-61 137,-137z"/>
    <path class="fil3" d="M175 106c1,0 1,1 2,1 0,0 0,1 0,1 1,1 1,2 1,3 0,1 -1,2 -1,3 0,1 -1,1 -1,2 -1,1 -2,2 -3,2 0,1 -1,2 -2,2 -1,0 -2,1 -3,1 0,0 -1,-1 -2,-1 0,0 0,0 -1,-1 0,0 0,0 0,0 0,-1 0,-1 0,-1 0,0 0,0 0,-1 0,0 0,0 0,0 0,0 0,0 0,0 0,0 1,0 1,0 0,1 0,1 0,1 0,0 0,1 1,1 0,0 0,0 1,0 0,0 0,0 1,0 1,0 2,-1 2,-2 1,0 2,-1 3,-2 0,-1 1,-3 1,-4 0,0 0,-1 0,-1 0,-1 0,-1 0,-1 0,-1 0,-1 0,-1 -1,0 -1,0 -1,0 -1,0 -1,0 -2,1 -1,0 -1,1 -2,2 -1,0 -1,1 -2,2 0,1 0,2 -1,2 0,1 0,1 0,1 0,1 0,1 0,1 0,0 0,0 0,0 -1,0 -1,0 -1,0 0,0 0,0 0,0 -1,-1 -1,-1 -1,-1 0,0 0,0 0,-1 0,0 0,0 0,-1 1,-1 1,-3 2,-5 0,-2 1,-4 2,-5 0,-2 1,-3 1,-4 1,-1 1,-2 1,-3 1,0 1,0 1,-1 0,0 1,0 1,0 0,0 1,0 1,0 0,0 1,0 1,0 0,0 0,0 0,1 1,0 1,0 0,0 0,0 0,0 0,1 0,0 0,0 0,0 0,0 -1,0 -1,1 0,0 0,0 0,0 -1,1 -1,1 -1,1 -1,2 -2,4 -2,6 -1,1 -2,3 -2,5 0,-1 1,-2 1,-2 1,-1 1,-1 2,-2 0,0 1,0 1,-1 1,0 2,0 2,0z"/>
    <path id="1" class="fil3" d="M189 124c0,1 0,1 0,1 0,0 0,0 0,0 0,0 -1,0 -1,0 0,0 0,0 0,0 0,0 0,0 0,0 0,0 0,0 0,0 -1,0 -1,0 -1,0 -1,-1 -1,-1 -2,-1 0,0 -1,0 -2,0 -1,0 -2,0 -3,0 -1,0 -1,0 -2,0 0,0 -1,0 -1,0 0,1 -1,1 -1,2 -1,0 -1,1 -2,1 0,1 -1,1 -2,1 0,1 -1,1 -1,1 0,0 -1,0 -1,0 0,0 0,-1 0,-1 0,0 0,0 0,0 0,0 -1,0 -1,0 0,0 0,0 0,0 0,-1 0,-1 0,-1 0,0 0,-1 0,-1 0,0 1,-1 1,-1 0,-1 1,-1 1,-1 1,-1 3,-1 4,-2 0,0 0,-1 1,-1 0,-1 0,-2 1,-3 0,-1 1,-1 1,-2 0,-1 1,-2 1,-2 0,-2 1,-3 1,-4 0,0 0,-1 0,-2 0,0 0,-1 1,-1 -1,0 -1,0 0,0 0,0 0,0 0,0 0,-1 0,-1 1,0 0,0 0,0 0,0 1,1 1,2 1,2 0,1 0,2 -1,2 0,1 0,1 0,2 0,1 -1,2 -1,2 0,1 -1,2 -1,3 -1,1 -1,3 -2,4 1,-1 2,-1 3,-1 1,0 2,0 2,0 1,1 2,1 3,1 0,0 1,0 1,1 1,0 1,0 1,0 0,0 0,0 1,1 0,0 0,0 0,0zm-19 3c0,0 1,0 1,0 0,0 0,0 0,0 1,0 1,-1 1,-1 1,0 1,-1 2,-1 -1,0 -2,0 -2,1 -1,0 -1,0 -2,1zm11 -24c0,0 0,0 1,0 0,0 0,-1 0,-1 0,0 0,0 0,0 0,0 1,-1 1,-1 1,0 1,0 1,0 1,0 1,0 1,0 0,1 0,1 0,1 0,0 0,0 0,0 0,0 0,0 0,0 -1,1 -1,1 -1,2 0,0 0,0 0,1 0,0 0,0 0,0 0,0 -1,0 -1,0 0,0 0,1 0,1 0,0 0,0 0,0 -1,0 -1,0 -1,0 0,-1 0,-1 0,-1 0,0 -1,0 -1,0 0,0 0,-1 0,-1 0,0 0,0 0,0 0,0 0,-1 0,-1z"/>
    <path id="2" class="fil3" d="M193 99c0,0 0,0 0,1 0,0 0,0 0,0 0,0 -1,0 -1,0 1,0 3,0 4,0 2,0 3,1 5,1 0,0 0,0 1,0 0,0 0,1 0,1 0,0 0,0 0,0 0,0 0,0 0,0 0,0 0,0 -1,0 0,0 -1,0 -3,0 0,0 -2,0 -3,0 -1,0 -2,0 -4,1 -1,1 -2,3 -2,5 -1,2 -1,4 -2,5 0,2 -1,3 -1,4 0,1 0,2 0,2 0,0 0,1 -1,1 0,0 0,0 0,0 0,0 0,0 -1,0 0,0 0,-1 0,-1 0,0 0,0 0,0 0,-1 0,-1 0,-1 0,0 0,-1 0,-1 0,-1 0,-2 1,-3 0,-2 0,-3 1,-4 0,-1 0,-2 1,-4 0,-1 1,-2 1,-3 0,0 0,0 0,0 0,0 -1,0 -1,0 0,1 -1,1 -1,1 0,0 0,0 -1,0 0,-1 0,-1 0,-1 0,0 1,-1 1,-1 0,0 1,-1 1,-1 1,0 1,0 2,0 0,0 0,0 0,0 0,0 0,0 0,0 1,-1 1,-2 1,-2 0,-1 0,-1 1,-2 0,0 0,0 0,-1 1,0 1,0 1,0 1,0 1,0 1,0 1,0 1,0 1,0 0,0 1,0 1,1 0,0 0,0 0,0 0,0 -1,0 -1,1 0,0 0,0 0,0 0,0 -1,1 -1,1z"/>
    <path id="3" class="fil3" d="M196 111c0,0 0,0 0,-1 0,0 0,0 0,0 0,0 0,-1 0,-1 1,0 1,0 1,0 0,0 0,0 0,0 0,0 1,0 1,0 0,0 0,0 0,0 1,1 1,1 1,1 0,1 0,1 0,1 0,1 0,1 -1,1 0,1 0,1 0,1 0,1 0,1 0,1 0,1 -1,1 -1,1 0,1 0,2 0,3 -1,1 -1,1 0,1 0,0 0,0 0,0 0,0 0,0 0,0 0,0 0,0 0,1 0,0 0,0 0,0 0,0 -1,0 -1,1 0,0 -1,0 -1,-1 0,0 0,0 0,0 -1,0 -1,0 -1,0 0,0 0,-1 0,-1 0,0 0,0 0,0 0,0 0,-1 0,-1 0,0 0,0 0,0 0,0 0,-1 0,-1 0,0 -1,1 -2,2 0,0 -1,0 -2,0 0,0 -1,0 -1,0 0,-1 0,-1 -1,-1 1,0 1,0 1,0 0,0 0,0 0,0 0,1 0,1 0,1 0,0 0,0 0,0l0 1 0 0 0 0 0 0 1 0c0,1 1,1 1,1 0,0 0,0 0,0 1,1 1,1 1,1 0,0 1,0 1,0 1,0 1,0 2,1l1 0c0,0 0,0 0,0l1 0c0,0 0,0 0,0 0,0 0,0 1,0 0,0 1,0 2,0 0,0 0,0 0,0 0,0 0,0 0,0 0,0 0,0 0,0l0 0c-1,0 -1,0 -1,0 0,0 0,0 0,0l-1 0c0,0 0,0 0,0 0,0 0,0 -1,0 0,0 0,0 -1,0 0,0 0,0 -1,0 0,0 0,0 0,0 0,0 -1,0 -1,0l-1 0c0,0 -1,0 -1,-1 0,0 0,0 0,0l-1 0 0 0 0 0 0 0 0 0 0 0c0,0 0,0 0,0l-1 -1 0 0 0 0 0 0c0,0 0,0 0,0 0,0 0,0 0,0l-1 -1c0,0 0,0 0,-1 0,0 -1,0 -1,-1 0,0 0,-1 0,-1 0,0 0,0 0,0 0,0 0,-1 0,-1l0 0c0,0 0,0 0,0 0,0 0,0 0,0l0 0c0,-1 0,-1 0,-2 0,0 0,0 0,-1 0,0 1,0 1,-1 0,-1 0,-1 0,-2 1,-1 1,-1 1,-2 1,0 1,-1 1,-1 0,-1 1,-1 1,-1 1,-1 1,-1 2,0 0,0 0,0 0,0 0,0 0,0 0,1 0,0 0,0 0,0 0,0 0,0 -1,1 0,0 0,1 0,1 -1,1 -1,2 -2,3 0,1 0,1 0,1 0,1 0,1 0,2 0,0 0,0 0,1 -1,0 -1,1 -1,1 1,0 1,0 1,0 0,1 0,1 0,1 0,0 1,-1 1,-1 0,0 1,0 1,-1 0,0 1,-1 1,-1 0,-1 0,-1 1,-2 0,0 0,-1 0,-1 1,0 1,-1 1,-1z"/>
    <path id="4" class="fil3" d="M216 99c-1,0 -1,0 -1,1 0,0 0,0 0,0 0,0 0,0 0,0 1,0 2,0 4,0 1,0 3,1 5,1 0,0 0,0 0,0 0,0 0,1 1,1 0,0 0,0 0,0 0,0 0,0 -1,0 0,0 0,0 0,0 -1,0 -2,0 -3,0 -1,0 -2,0 -3,0 -2,0 -3,0 -4,1 -1,1 -2,3 -3,5 0,2 -1,4 -1,5 -1,2 -1,3 -2,4 0,1 0,2 0,2 0,0 0,1 0,1 0,0 0,0 -1,0 0,0 0,0 0,0 0,0 0,-1 -1,-1 0,0 0,0 0,0 0,-1 0,-1 0,-1 0,0 0,-1 0,-1 1,-1 1,-2 1,-3 0,-2 1,-3 1,-4 1,-1 1,-2 1,-4 1,-1 1,-2 2,-3 0,0 -1,0 -1,0 0,0 0,0 0,0 -1,1 -1,1 -1,1 -1,0 -1,0 -1,0 0,-1 0,-1 0,-1 0,0 0,-1 1,-1 0,0 0,-1 1,-1 0,0 1,0 1,0 0,0 1,0 1,0 0,0 0,0 0,0 0,-1 0,-2 1,-2 0,-1 0,-1 0,-2 0,0 1,0 1,-1 0,0 1,0 1,0 0,0 0,0 1,0 0,0 0,0 1,0 0,0 0,0 0,1 0,0 0,0 0,0 0,0 0,0 0,1 0,0 0,0 0,0 -1,0 -1,1 -1,1z"/>
    <path id="5" class="fil3" d="M216 106c1,0 1,0 1,0 0,0 0,0 0,0 0,0 0,0 1,0 0,0 0,0 0,0 0,0 0,0 0,0 0,0 1,0 1,0 0,0 0,0 0,0 0,1 0,1 0,1 0,0 0,1 0,1 0,0 0,0 0,1 0,0 0,0 0,0 0,1 -1,2 -1,3 -1,1 -1,2 -2,3 0,1 0,1 -1,2 0,1 0,1 1,2 0,0 0,0 0,0 0,0 0,0 0,0 0,0 0,0 0,0 0,0 0,0 -1,0 0,0 0,0 -1,0 0,0 0,0 -1,-1 0,0 0,-1 0,-1 0,-1 0,-2 0,-3 1,0 1,-1 1,-2 1,-1 1,-1 2,-2 0,-1 0,-1 1,-2 0,0 0,0 0,0 0,-1 0,-1 0,-1 0,0 0,0 -1,0 0,0 0,0 0,0 -1,0 -1,1 -2,2 0,0 -1,1 -1,1 0,0 0,1 0,1 0,0 -1,-1 -1,-1 0,0 1,0 1,-1 0,0 0,0 0,0 0,-1 0,-1 0,-1 0,0 0,0 0,0 0,0 1,0 1,-1 0,0 0,0 1,-1 -1,0 -1,0 -1,-1 0,0 0,-1 0,-1 0,-1 0,-1 1,-2 0,0 0,-1 1,-1 0,-1 0,-1 1,-1 0,0 1,0 1,0 0,1 0,1 0,1 0,1 0,1 0,2 0,0 0,1 -1,1 0,1 0,1 -1,2zm0 -1c0,0 0,-1 0,-1 1,-1 1,-1 1,-1 0,-1 0,-1 0,-1 0,0 0,0 -1,1 0,0 0,0 0,1 0,0 0,1 0,1z"/>
    <path id="6" class="fil3" d="M228 111c0,0 0,1 0,1 0,1 0,1 -1,2 0,1 0,1 -1,2 0,1 0,1 0,1 1,0 1,0 1,0 0,0 0,0 0,0 0,0 0,0 0,0 0,0 0,0 0,0 0,0 0,0 0,1 0,0 0,0 0,0 0,0 -1,0 -1,0 -1,0 -1,0 -1,0 -1,-1 -1,-1 -1,-1 0,-1 0,-1 0,-1 0,0 -1,0 -1,1 -1,0 -1,1 -1,1 -1,0 -1,1 -2,1 0,0 0,0 -1,0 0,0 -1,0 -1,0 0,-1 -1,-1 -1,-2 0,0 0,0 0,1 0,0 0,0 0,0 0,0 0,1 0,1 0,0 0,0 0,0 0,0 0,1 0,1 0,0 0,0 1,0 0,0 0,0 0,0 0,0 0,0 0,0 0,0 0,0 0,0 0,0 0,0 0,1l0 0 0 0c0,0 0,0 0,0 0,0 0,0 0,0l0 0 0 0c0,0 0,0 0,0l1 1 0 0 0 0c0,0 0,0 0,0 0,0 0,0 0,0l0 0 0 0 1 0 0 0c0,0 0,0 0,0 0,0 0,0 0,0 0,0 0,0 0,0 1,0 1,0 1,1 0,0 0,0 1,0l0 0 0 0c0,0 0,0 0,0l1 0c0,0 0,0 0,0 1,0 1,0 1,0 1,0 1,0 1,-1 1,0 1,0 2,0 0,0 0,0 0,0 0,0 0,0 0,0 0,0 0,0 -1,0l0 1 0 0 -1 0c0,0 0,0 0,0 0,0 0,0 -1,0 0,0 0,0 0,0 0,0 -1,0 -1,0 0,0 -1,0 -1,0 -1,0 -1,0 -1,0 -1,0 -1,0 -2,0 0,0 0,0 0,0 0,0 0,0 0,0 0,0 0,0 0,0 0,-1 0,-1 0,-1l0 0c0,0 0,0 0,0 0,0 0,0 0,0l0 0 0 0 0 0c0,0 0,0 -1,0 0,0 0,0 0,0 0,0 0,0 0,0l0 0 0 0c0,0 0,0 0,-1 0,0 0,0 0,0 -1,0 -1,0 -1,0 0,0 0,0 0,-1 0,0 0,0 0,0 0,0 0,0 0,0 0,-1 0,-1 0,-1 0,0 0,0 0,0 0,-1 0,-2 0,-2 0,-1 0,-1 1,-2 0,0 0,-1 0,-2 1,-1 1,-1 1,-2 1,-1 1,-1 2,-2 0,0 1,-1 1,-1 1,-1 1,-1 2,-1 0,-1 1,-1 1,-1 1,0 1,1 2,1 0,0 0,1 0,1 1,0 1,1 1,1 0,0 -1,0 -1,0 0,1 0,0 0,0 0,0 0,0 0,0 0,0 0,0 0,0 0,0 0,0 -1,0 0,0 0,0 0,0 0,0 0,0 0,0 -1,0 -1,0 -1,0 0,1 -1,1 -1,2 -1,0 -1,1 -2,1 0,1 -1,2 -1,3 0,0 -1,1 -1,1 0,1 0,1 0,1 0,0 1,0 1,0 0,0 1,-1 1,-1 0,0 1,-1 1,-1 1,-1 1,-1 1,-1 1,-1 1,-1 1,-2 1,0 1,-1 1,-1 0,0 0,0 0,0 0,0 0,-1 0,-1 0,0 0,0 0,0 0,0 0,0 0,0 1,0 1,0 1,0 0,0 0,0 1,0 0,0 0,0 0,0 0,0 0,1 0,1z"/>
    <path id="7" class="fil3" d="M237 103c1,0 1,0 1,0 1,0 1,0 1,0 1,0 1,1 1,1 0,0 0,0 0,1 0,0 0,0 0,0 0,0 0,0 0,0 0,0 -1,0 -1,0 0,0 -1,0 -1,0 0,1 -1,1 -1,2 -1,0 -1,1 -2,2 -1,1 -1,2 -1,2 -2,3 -3,5 -4,8 0,0 0,0 0,0 0,0 0,0 0,0 0,1 -1,1 -1,1 0,0 0,0 -1,0 0,-1 0,-1 0,-1 0,-1 0,-1 0,-1 0,0 0,-1 0,-1 0,0 0,0 0,0 0,-1 0,-2 0,-2 1,-1 1,-1 1,-1 0,-2 0,-3 0,-4 0,-1 0,-2 0,-2 0,-1 0,-2 0,-2 0,0 0,-1 0,-1 0,0 0,0 0,0 0,0 1,0 1,0 0,0 1,0 1,1 0,0 1,1 1,1 0,1 0,1 0,2 0,1 0,2 0,4 0,-2 1,-3 1,-4 1,-2 1,-3 2,-3 0,-1 1,-2 1,-2 1,0 1,-1 1,-1z"/>
    <path id="8" class="fil3" d="M244 114c0,0 0,0 0,0 0,1 0,1 0,2 0,0 -1,1 -1,1 0,1 -1,1 -1,1 -1,1 -1,1 -2,1 0,0 -1,0 -2,0 -1,0 -1,0 -2,0 0,-1 -1,-1 -1,-2 0,0 -1,-1 0,-2 0,-1 0,-2 0,-3 0,0 1,-1 1,-2 1,-1 1,-1 2,-2 1,0 1,-1 2,-1 0,0 0,0 1,0 0,0 1,0 1,0 1,0 1,1 1,1 0,1 0,1 0,2 0,0 0,0 0,1 -1,0 -1,1 -2,1 1,0 1,0 2,0 0,-1 1,-1 1,-1 1,0 2,0 2,-1 1,0 2,0 2,0 1,0 1,0 2,0 0,0 0,-1 1,-1 0,0 0,0 1,0 0,0 1,0 1,0 0,0 1,0 1,0 1,0 1,0 1,0 0,0 1,0 1,0 0,0 0,0 0,0l1 0c0,0 0,0 0,0 0,0 0,0 1,0l0 1 1 0c0,0 0,0 0,1 0,0 1,0 1,0l0 0c0,0 0,1 0,1 0,0 0,0 0,0l0 0c0,0 0,0 0,0 0,0 0,0 0,0l0 0 0 1 0 0c0,0 0,-1 0,-1l0 0c0,0 0,0 0,0 0,0 0,0 0,0 0,-1 0,-1 -1,-1 0,0 0,0 0,0l0 0 0 -1c0,0 0,0 -1,0 0,0 0,0 -1,0 0,0 -1,0 -1,-1 -1,0 -1,0 -2,0 0,1 -1,1 -2,1 0,0 -1,0 -2,0 0,0 -1,0 -2,1 -1,0 -1,0 -2,0 -1,0 -2,1 -3,1 0,0 -1,0 -2,1l-1 0c-1,0 -2,1 -2,1 -1,0 -1,1 -1,2 0,0 0,1 0,1 0,1 1,1 1,1 1,0 1,0 2,0 0,0 1,0 1,-1 1,0 1,0 1,-1 0,0 1,-1 1,-1 0,0 0,0 0,-1 0,0 0,0 0,0 0,0 0,0 0,0 0,0 1,0 1,0zm-3 -4c0,0 1,0 1,0 0,0 0,0 0,-1 -1,0 -1,0 -1,0 0,0 0,0 -1,1 0,0 0,0 0,0 -1,1 -1,1 -1,1 0,0 -1,1 -1,1 0,0 0,0 0,0 0,0 1,0 1,0 0,0 1,0 1,0 0,-1 0,-1 1,-1 0,0 0,0 0,-1z"/>
    <path id="9" class="fil3" d="M255 96c0,0 0,0 0,1 0,0 0,0 0,0 0,0 0,0 0,1 0,0 0,0 0,0 0,0 -1,1 -1,1 0,0 0,0 0,1 -1,0 -1,0 -1,0 0,2 -1,3 -2,4 0,1 -1,3 -1,4 -1,1 -1,2 -2,3 0,1 0,2 -1,3 0,1 0,1 0,1 0,1 0,1 0,1 -1,1 -1,2 0,2l0 0 0 0c0,1 0,1 0,1 0,0 -1,0 -1,0 0,0 0,0 0,0 0,0 -1,0 -1,0 0,0 0,0 0,0 0,0 0,0 0,-1 0,0 0,0 -1,0 0,0 0,-1 0,-1 0,0 1,-1 1,-2 0,0 0,-1 0,-1 0,-1 0,-2 1,-2 0,-2 1,-3 1,-5 1,-1 1,-3 2,-4 0,-2 1,-3 1,-4 1,-1 1,-1 1,-2 0,0 1,0 1,-1 0,0 0,0 1,0 0,0 0,0 1,0 0,0 0,0 1,0z"/>
    <path class="fil3" d="M48 299l-6 0 0 3 6 0c0,0 1,0 1,-1 1,0 1,0 1,-1 0,0 0,-1 -1,-1 0,0 -1,0 -1,0zm0 5l-6 0 0 4 6 0c1,0 2,0 2,-1 0,0 1,-1 1,-1 0,-1 -1,-1 -1,-2 0,0 -1,0 -2,0zm-8 6l0 -13 8 0c1,0 2,0 3,1 0,0 1,1 1,2 0,1 0,1 0,1 -1,1 -1,1 -1,1 0,1 1,1 1,2 1,0 1,1 1,2 0,1 -1,2 -1,3 -1,0 -2,1 -4,1l-8 0z"/>
    <path id="1" class="fil3" d="M55 304l2 0 0 2c0,1 1,1 1,2 1,0 2,0 3,0 1,0 2,0 3,-1 0,0 0,-1 0,-3l0 -7 2 0 0 8c0,2 0,3 -1,4 -1,1 -2,1 -4,1 -2,0 -3,0 -4,-1 -1,-1 -2,-2 -2,-3l0 -2z"/>
    <polygon id="2" class="fil3" points="74,310 74,299 68,299 68,297 81,297 81,299 76,299 76,310 "/>
    <path id="3" class="fil3" d="M83 297l2 0 0 8c0,1 1,2 1,3 1,0 2,0 4,0 1,0 2,0 3,0 1,-1 1,-2 1,-3l0 -8 2 0 0 9c0,1 -1,2 -2,3 -1,1 -2,1 -4,1 -3,0 -4,0 -5,-1 -1,-1 -2,-2 -2,-3l0 -9z"/>
    <polygon id="4" class="fil3" points="114,310 114,299 108,299 108,297 121,297 121,299 116,299 116,310 "/>
    <path id="5" class="fil3" d="M125 302l7 0c1,0 1,0 2,0 0,-1 0,-1 0,-2 0,0 0,-1 0,-1 -1,0 -1,0 -2,0l-7 0 0 3zm0 2l0 6 -2 0 0 -13 9 0c2,0 3,0 3,1 1,0 1,1 1,2 0,1 0,2 0,3 -1,0 -2,1 -3,1l4 6 -2 0 -4 -6 -6 0z"/>
    <path id="6" class="fil3" d="M142 305l5 0 -3 -5 -2 5zm-5 5l7 -13 1 0 7 13 -3 0 -1 -4 -7 0 -2 4 -2 0z"/>
    <polygon id="7" class="fil3" points="158,310 157,310 150,297 153,297 157,306 162,297 164,297 "/>
    <polygon id="8" class="fil3" points="167,310 167,297 179,297 179,299 169,299 169,302 176,302 176,304 169,304 169,308 180,308 180,310 "/>
    <polygon id="9" class="fil3" points="183,310 183,297 185,297 185,308 194,308 194,310 "/>
    <path id="10" class="fil3" d="M209 305l5 0 -2 -5 -3 5zm-5 5l7 -13 1 0 7 13 -2 0 -2 -4 -7 0 -2 4 -2 0z"/>
    <path id="11" class="fil3" d="M230 305l0 -2 5 0 0 4c-1,1 -2,2 -3,2 -1,1 -3,1 -4,1 -3,0 -5,-1 -6,-2 -2,-1 -2,-3 -2,-5 0,-2 0,-3 2,-5 1,-1 3,-2 6,-2 1,0 3,1 4,1 1,1 2,1 3,2l-2 2c0,-1 -1,-2 -2,-2 -1,0 -2,-1 -3,-1 -2,0 -3,1 -5,2 -1,1 -1,2 -1,3 0,2 0,3 1,4 2,1 3,1 5,1 1,0 2,0 3,0 1,-1 1,-1 2,-2l0 -1 -3 0z"/>
    <polygon id="12" class="fil3" points="239,310 239,297 251,297 251,299 241,299 241,302 247,302 247,304 241,304 241,308 251,308 251,310 "/>
    <polygon id="13" class="fil3" points="254,310 254,297 255,297 263,306 263,297 265,297 265,310 264,310 256,301 256,310 "/>
    <path id="14" class="fil3" d="M284 307c-1,1 -2,2 -3,2 -2,1 -3,1 -4,1 -3,0 -5,-1 -6,-2 -2,-1 -2,-3 -2,-5 0,-2 0,-3 2,-5 1,-1 3,-2 6,-2 1,0 2,1 3,1 2,1 3,2 3,2l-1 2c-1,-1 -2,-2 -2,-2 -1,0 -2,-1 -3,-1 -2,0 -3,1 -5,2 -1,1 -1,2 -1,3 0,2 0,3 1,4 2,1 3,1 5,1 1,0 2,0 3,0 1,-1 1,-2 2,-3l2 2z"/>
    <polygon id="15" class="fil3" points="290,310 290,303 284,297 287,297 291,301 295,297 298,297 292,303 292,310 "/>
   </g>
   <rect class="fil4" width="318" height="318"/>
  </g>
 </g>
</svg>
