<?xml version="1.0" encoding="UTF-8"?>
<!DOCTYPE svg PUBLIC "-//W3C//DTD SVG 1.1//EN" "http://www.w3.org/Graphics/SVG/1.1/DTD/svg11.dtd">
<!-- Creator: CorelDRAW X7 -->
<svg xmlns="http://www.w3.org/2000/svg" xml:space="preserve" width="43.3493mm" height="43.3493mm" version="1.1" style="shape-rendering:geometricPrecision; text-rendering:geometricPrecision; image-rendering:optimizeQuality; fill-rule:evenodd; clip-rule:evenodd"
viewBox="0 0 4101 4101"
 xmlns:xlink="http://www.w3.org/1999/xlink">
 <defs>
  <style type="text/css">
   <![CDATA[
    .fil4 {fill:none}
    .fil1 {fill:#FEFEFE}
    .fil0 {fill:#00AFEF}
    .fil2 {fill:#00AFEF}
    .fil3 {fill:#00AFEF;fill-rule:nonzero}
   ]]>
  </style>
 </defs>
 <g id="Layer_x0020_1">
  <metadata id="CorelCorpID_0Corel-Layer"/>
  <g id="_674906400">
   <g>
    <polygon class="fil0" points="1662,1072 1879,1072 2083,3123 1458,3134 "/>
    <path class="fil1" d="M1760 1072l21 0 1 117 -23 0 1 -117zm22 160l2 166 -27 0 1 -166 24 0zm2 209l2 165 -31 0 1 -165 28 0zm2 208l2 166 -35 0 1 -166 32 0zm2 209l1 165 -38 0 1 -165 36 0zm2 208l1 166 -42 0 1 -166 40 0zm2 209l1 165 -47 0 2 -165 44 0zm1 208l2 166 -51 0 2 -166 47 0zm2 209l2 165 -55 0 2 -165 51 0zm2 208l2 228 -59 1 2 -229 55 0z"/>
    <g>
     <path class="fil1" d="M1740 3147l4 -691c1,-382 313,-690 694,-689 382,2 690,313 689,695 -2,382 -313,690 -695,688l-692 -3zm356 -352l337 1c187,1 339,-149 339,-336 1,-186 -149,-338 -335,-338 -187,-1 -338,149 -339,335l-2 338z"/>
    </g>
    <path class="fil2" d="M2054 2836l2 -379c1,-209 171,-378 381,-377 209,1 378,171 377,381 -1,209 -171,378 -381,377l-379 -2zm-272 269l650 4c359,1 651,-288 653,-647 1,-359 -288,-651 -647,-653 -359,-2 -651,288 -653,647l-3 649z"/>
    <path class="fil0" d="M1758 1024c31,1 55,-94 62,-230l294 -129c29,-13 65,-32 65,-55l0 0c-168,47 -297,49 -351,59 -31,5 -33,-76 -52,-195l96 -42c10,-5 23,-12 23,-19l0 0 -123 35c0,-3 0,5 0,5l0 0 0 0 0 -19c-1,-26 -49,-28 -49,-2l1 19c0,0 0,-8 0,-5l-111 -19 0 0c0,8 11,17 23,21l83 25c-11,53 -18,107 -33,180 -15,70 -174,23 -322,-2l0 0c1,23 31,50 67,61l258 78c12,135 39,232 69,234z"/>
    <path class="fil2" d="M335 1852c0,-925 750,-1674 1674,-1674 925,0 1675,749 1675,1674 0,925 -750,1675 -1675,1675 -924,0 -1674,-750 -1674,-1675zm3446 0c0,-978 -793,-1771 -1772,-1771 -978,0 -1771,793 -1771,1771 0,978 793,1772 1771,1772 979,0 1772,-794 1772,-1772z"/>
    <path class="fil3" d="M2258 1370c7,1 13,4 18,9 4,4 8,10 12,18 3,8 4,20 3,34 0,11 -3,22 -8,34 -5,12 -12,23 -20,34 -8,10 -17,20 -27,29 -10,8 -21,15 -32,20 -11,5 -22,7 -33,8 -11,0 -21,-3 -31,-9 -2,-2 -5,-5 -7,-8 -1,-3 -3,-6 -4,-9 -2,-4 -2,-8 -2,-13 0,-1 0,-2 1,-3 0,0 1,-1 2,-2 0,0 1,-1 2,-1 1,0 2,1 4,4 1,2 2,5 4,8 2,3 5,6 8,9 3,3 7,5 12,7 5,1 12,0 22,-5 9,-5 19,-12 29,-21 9,-10 19,-21 27,-35 9,-14 15,-29 19,-45 1,-6 1,-12 1,-17 0,-5 0,-10 -1,-15 -1,-4 -3,-8 -5,-11 -3,-2 -7,-3 -13,-1 -6,2 -12,6 -20,13 -8,6 -16,14 -26,24 -9,11 -18,23 -27,37 -3,10 -5,18 -7,24 -1,7 -2,11 -2,14 0,6 0,10 -2,11 -2,2 -4,3 -7,2 -2,0 -5,-2 -7,-4 -3,-2 -5,-5 -6,-7 -2,-2 -3,-4 -3,-7 0,-3 0,-6 0,-9 0,-3 1,-7 2,-11 4,-24 10,-48 17,-71 8,-24 16,-46 23,-66 8,-20 16,-37 22,-52 7,-14 12,-24 14,-30 3,-6 6,-10 10,-13 4,-3 8,-5 12,-6 4,-1 9,-1 13,-1 4,0 7,1 10,2 4,1 6,3 7,6 1,3 1,6 0,8 -1,2 -2,4 -3,5 -1,1 -2,2 -2,2 -4,4 -7,8 -10,11 -3,4 -5,8 -8,11 -2,4 -4,8 -6,12 -12,22 -23,45 -32,67 -9,23 -17,45 -24,64 5,-6 11,-14 17,-21 6,-7 13,-14 20,-19 7,-6 15,-10 22,-13 7,-3 15,-4 22,-2z"/>
    <path id="1" class="fil3" d="M2435 1604c1,3 0,5 0,7 -1,2 -1,3 -2,5 -1,1 -3,2 -5,1 -2,0 -3,0 -4,-1 -1,-1 -2,-2 -2,-3 -1,-1 -2,-2 -4,-3 -2,-1 -6,-2 -11,-4 -5,-2 -11,-3 -19,-4 -8,-2 -18,-3 -29,-4 -12,0 -25,-1 -39,0 -7,0 -13,0 -19,0 -6,1 -13,1 -19,2 -5,8 -11,16 -17,23 -6,7 -13,14 -20,19 -6,5 -14,9 -21,12 -8,3 -16,4 -24,4 -1,0 -2,0 -3,-1 -1,0 -2,0 -3,0 -1,0 -2,-1 -3,-1 -4,-2 -6,-4 -8,-6 -1,-3 -2,-4 -3,-5 -1,-3 -1,-6 -1,-10 0,-3 0,-7 3,-12 2,-4 5,-8 9,-13 5,-5 11,-10 20,-16 11,-7 27,-13 45,-18 3,-5 6,-12 10,-21 4,-9 9,-19 14,-30 4,-10 9,-21 14,-32 4,-11 8,-20 11,-28 6,-16 10,-30 13,-40 3,-11 6,-20 7,-27 1,-7 2,-14 3,-18 -1,-1 -1,-2 0,-3 0,-1 1,-2 3,-4 3,-2 7,-1 12,1 4,2 8,6 10,11 4,7 5,15 4,24 -1,9 -2,17 -4,24 -2,6 -4,14 -7,24 -2,10 -6,20 -11,32 -4,12 -9,25 -15,38 -6,14 -13,27 -20,41 11,-1 22,-2 33,-3 12,0 22,0 33,1 10,1 20,3 29,5 8,2 16,5 23,9 3,1 5,3 8,6 2,2 4,5 6,8 2,3 3,6 3,10zm-240 33c2,0 4,1 7,1 2,0 5,0 9,-2 4,-2 8,-5 12,-9 4,-5 9,-11 15,-19 -9,2 -17,6 -24,11 -8,4 -14,10 -19,18zm144 -303c1,-4 1,-6 2,-8 1,-3 1,-4 2,-6 1,-1 2,-3 3,-4 4,-7 9,-11 15,-12 7,-2 13,-2 17,-1 3,2 5,3 6,5 1,2 2,4 1,6 0,2 0,4 -1,5 -1,1 -1,2 -2,2 -3,5 -6,10 -8,16 -2,5 -4,9 -5,12 -1,1 -1,3 -2,4 -1,2 -2,4 -3,5 -1,2 -2,4 -4,5 -2,1 -3,1 -5,1 -4,-1 -7,-2 -9,-4 -2,-1 -3,-2 -5,-4 -1,-1 -1,-3 -2,-5 0,-2 0,-4 0,-7 0,-2 0,-4 0,-6 0,-2 0,-4 0,-4z"/>
    <path id="2" class="fil3" d="M2489 1279c-1,1 -2,3 -3,4 -1,2 -2,3 -3,5 -1,2 -2,4 -3,6 15,-1 31,-1 49,0 18,2 39,5 63,10 3,1 5,2 8,3 2,1 4,2 5,3 1,1 2,3 2,4 -1,1 -1,2 -3,3 -1,1 -3,1 -6,1 -12,-2 -25,-2 -39,-2 -12,-1 -26,-1 -42,0 -16,1 -33,3 -52,6 -11,24 -22,48 -31,72 -9,23 -16,45 -22,65 -6,20 -11,36 -14,50 -3,13 -4,22 -4,25 0,6 -1,10 -3,12 -2,2 -4,2 -6,2 -3,-1 -5,-2 -8,-4 -2,-3 -4,-5 -6,-7 -2,-2 -2,-4 -3,-7 0,-3 0,-6 0,-9 1,-4 1,-7 2,-11 3,-14 6,-29 10,-45 4,-15 9,-31 14,-47 5,-15 11,-31 16,-46 6,-15 11,-29 16,-42 -2,1 -4,1 -6,2 -2,0 -4,1 -6,2 -6,1 -10,2 -14,2 -4,0 -7,0 -9,-1 -3,-1 -3,-3 -2,-7 2,-5 5,-9 9,-14 4,-4 9,-7 15,-10 6,-4 14,-6 23,-7 1,0 1,0 2,0 1,0 1,0 2,0 4,-10 8,-18 11,-25 3,-7 5,-12 7,-15 2,-6 6,-10 10,-13 4,-3 8,-5 12,-6 4,-1 8,-1 12,-1 4,0 8,1 11,2 3,1 5,3 6,6 1,3 1,6 1,8 -1,2 -2,4 -4,5 -1,1 -1,2 -2,2 -6,6 -11,13 -15,19z"/>
    <path id="3" class="fil3" d="M2525 1432c0,-2 1,-4 2,-7 1,-3 2,-6 3,-8 1,-3 3,-6 4,-9 0,-2 1,-4 3,-6 2,-2 5,-3 8,-2 2,0 4,1 6,3 3,1 6,3 8,6 3,3 4,7 5,11 1,5 0,10 -2,17 0,2 -2,6 -3,10 -2,4 -3,9 -5,13 -2,5 -3,9 -5,13 -1,4 -2,7 -3,10 -6,17 -10,30 -11,39 -2,9 -1,15 1,16 0,0 1,1 1,1 0,0 1,0 1,1 0,0 1,1 1,1 1,2 1,4 0,7 -2,3 -6,5 -12,6 -5,1 -11,0 -15,-4 -2,0 -3,-2 -4,-3 -1,-1 -1,-3 -2,-4 -1,-2 -1,-3 -2,-5 -1,-2 -1,-5 -2,-7 0,-2 -1,-4 -1,-6 0,-2 0,-3 0,-5 0,-4 1,-9 2,-16 -7,10 -14,18 -23,24 -8,7 -16,10 -25,8 -7,-1 -12,-3 -16,-7 -3,-3 -7,-7 -9,-11 1,1 1,3 2,4 0,1 1,2 1,4 1,4 3,8 6,12 1,2 1,2 1,2l1 2 1 1 0 0 1 2 6 6c4,4 8,7 12,11 2,1 5,2 7,4 3,1 6,2 8,4 6,2 11,4 17,6 6,1 12,3 18,4l18 3c2,0 4,0 5,0l4 0c1,0 3,0 5,0 2,0 3,1 4,1 12,0 24,0 35,0 -1,0 -1,0 -1,0 -1,0 -1,0 -2,1 0,0 -1,0 -1,0l-5 1c-1,0 -3,0 -4,0 -1,0 -2,0 -4,0l-8 2c-2,0 -4,0 -5,0 -2,0 -4,0 -6,0 -4,0 -8,1 -13,1 -4,0 -9,-1 -14,-1 -2,-1 -5,-1 -7,-1 -3,0 -5,0 -8,-1l-17 -4c-3,-1 -6,-2 -9,-3 -3,-1 -5,-3 -8,-4l-2 -1 -3 -2 -2 -1 -2 -1 -1 -1 -1 -1c-1,0 -2,-1 -2,-1l-2 -2 -3 -1 -2 -2 -4 -4c0,0 0,0 0,-1 0,0 -1,0 -1,-1l-7 -8c-2,-3 -4,-7 -5,-10 -2,-3 -3,-7 -5,-11 -2,-7 -3,-14 -3,-23 0,-1 0,-1 0,-1 0,-1 0,-1 0,-2l0 -1c0,-1 0,-3 0,-4 0,-1 0,-2 0,-4l0 -3c0,-4 1,-9 2,-15 1,-5 1,-9 2,-13 1,-5 3,-10 4,-15 3,-9 6,-18 9,-27 4,-10 7,-18 11,-25 3,-6 7,-13 12,-19 4,-6 10,-11 17,-13 5,-2 9,-2 14,-1 5,2 8,4 10,7 0,2 0,3 0,5 -1,1 -1,2 -2,2 -3,3 -6,8 -10,14 -3,6 -7,13 -11,23 -4,9 -9,21 -14,36 -2,5 -3,10 -5,15 -1,5 -3,9 -4,14 -1,5 -2,9 -3,13 -1,7 -1,12 -1,16 1,4 1,6 3,8 1,2 2,3 4,3 4,0 8,-2 12,-6 5,-3 9,-8 13,-13 4,-5 9,-11 12,-18 4,-7 8,-13 11,-19 3,-7 6,-12 8,-18 3,-5 4,-9 6,-11z"/>
    <path id="4" class="fil3" d="M2780 1279c-1,1 -3,3 -4,4 -1,2 -1,3 -3,5 -1,2 -1,4 -2,6 14,-1 30,-1 48,0 19,2 40,5 63,10 3,1 6,2 8,3 2,1 4,2 5,3 2,1 2,3 2,4 0,1 -1,2 -2,3 -2,1 -4,1 -7,1 -12,-2 -25,-2 -39,-2 -12,-1 -26,-1 -42,0 -16,1 -33,3 -51,6 -12,24 -22,48 -31,72 -9,23 -17,45 -23,65 -6,20 -11,36 -14,50 -3,13 -4,22 -4,25 0,6 -1,10 -3,12 -2,2 -4,2 -6,2 -2,-1 -5,-2 -7,-4 -3,-3 -5,-5 -7,-7 -1,-2 -2,-4 -2,-7 -1,-3 -1,-6 0,-9 0,-4 0,-7 1,-11 3,-14 6,-29 10,-45 5,-15 9,-31 14,-47 6,-15 11,-31 16,-46 6,-15 11,-29 17,-42 -2,1 -4,1 -6,2 -2,0 -5,1 -7,2 -5,1 -10,2 -14,2 -3,0 -6,0 -9,-1 -2,-1 -3,-3 -2,-7 2,-5 5,-9 10,-14 3,-4 8,-7 14,-10 6,-4 14,-6 23,-7 1,0 2,0 2,0 1,0 2,0 2,0 5,-10 8,-18 11,-25 3,-7 6,-12 7,-15 3,-6 6,-10 10,-13 4,-3 8,-5 12,-6 5,-1 9,-1 13,-1 4,0 7,1 10,2 3,1 6,3 7,6 1,3 1,6 0,8 -1,2 -2,4 -4,5 0,1 -1,2 -2,2 -6,6 -11,13 -14,19z"/>
    <path id="5" class="fil3" d="M2791 1364c2,0 4,0 6,0 2,0 3,0 4,0 1,-1 2,-1 4,-1 0,0 2,0 4,-1 2,0 4,0 6,0 2,1 4,2 6,3 2,1 4,3 5,6 2,3 3,7 3,11 0,3 0,7 -1,10 -1,4 -2,7 -3,10 -1,2 -2,4 -2,5 -5,11 -11,22 -18,35 -6,12 -12,25 -18,36 -5,12 -8,22 -10,32 -1,9 1,15 7,19 0,0 0,1 1,1 1,1 1,2 1,3 0,1 -1,2 -2,3 -1,2 -3,3 -6,3 -5,1 -9,0 -14,-2 -5,-3 -9,-6 -12,-12 -3,-5 -5,-12 -6,-21 0,-8 2,-18 6,-29 4,-10 8,-20 13,-30 5,-9 10,-18 15,-26 4,-8 8,-14 12,-20 4,-6 6,-9 7,-12 2,-3 2,-5 1,-7 -2,-2 -5,-3 -10,-3 -3,1 -5,0 -7,-1 -7,10 -14,18 -20,26 -7,8 -13,16 -19,22 0,1 -1,1 -2,2 -2,0 -2,-2 -2,-5 0,-3 1,-7 2,-12 1,-4 3,-7 3,-10 0,0 1,0 1,-1 0,0 0,0 1,-1 3,-3 6,-7 10,-11 3,-4 7,-9 11,-13 -6,-3 -10,-8 -11,-14 -1,-6 -1,-12 1,-19 2,-8 5,-15 9,-22 4,-7 9,-13 14,-18 5,-5 10,-9 15,-10 5,-2 9,-1 12,2 4,4 6,9 6,14 1,5 0,11 -2,17 -2,7 -5,13 -8,20 -4,7 -8,14 -13,21zm-10 -9c4,-6 8,-11 11,-17 3,-5 5,-10 6,-15 1,-6 1,-8 -1,-7 -2,1 -4,3 -7,7 -2,5 -5,10 -7,16 -2,6 -3,11 -2,16z"/>
    <path id="6" class="fil3" d="M2942 1431c0,6 -1,11 -3,16 -1,4 -4,10 -7,17 -6,14 -11,24 -12,32 -2,7 -2,12 1,13 0,0 0,0 1,0 0,1 0,1 1,1 0,0 1,0 2,0 1,0 2,1 4,2 1,1 2,2 2,3 1,2 0,4 -1,6 -6,5 -12,6 -18,5 -7,-1 -12,-4 -16,-8 -3,-4 -5,-9 -6,-14 0,-5 -1,-10 -1,-13 -5,6 -10,11 -16,16 -5,6 -11,11 -16,15 -5,4 -11,8 -16,10 -5,3 -9,4 -13,4 -7,0 -13,-2 -17,-7 -5,-5 -7,-12 -8,-19 0,2 -1,4 -1,6 0,2 0,5 0,7 0,2 0,5 0,8 0,2 1,5 1,8 0,1 1,2 1,4 0,1 0,1 1,2 0,0 0,0 0,1 0,0 0,0 0,1 1,1 1,2 2,3 0,2 1,3 1,4l1 2 2 2c0,0 1,1 1,1 0,1 1,2 1,2l1 1 2 2c0,1 1,1 1,1l2 2 2 1 2 2c1,1 2,2 3,2 1,0 1,1 1,1l1 0 2 1 2 1 1 0c0,0 0,0 1,1 0,0 0,0 0,0 3,1 6,2 9,2 3,1 6,1 9,2 1,0 3,0 5,0l2 1 2 0c1,0 3,0 5,0l4 0c3,0 7,0 10,0 3,0 6,0 9,0 6,-1 12,-1 18,-2 6,-1 12,-2 17,-2 0,0 0,0 0,0 -1,0 -2,0 -2,0 -1,0 -1,1 -2,1l-5 2 -7 1 -4 2c-1,0 -3,0 -5,0 -1,1 -3,1 -5,2 -2,0 -4,0 -6,1 -4,0 -8,1 -12,1 -5,1 -10,1 -15,0 -5,0 -11,0 -16,-1 -6,-1 -12,-3 -17,-5 -1,0 -1,0 -1,-1 -1,0 -1,0 -1,0 0,0 0,0 0,0 -1,-1 -2,-1 -2,-1l-2 -1c0,0 0,0 0,0 0,0 0,0 -1,0l-1 -1 0 0 -1 0c0,-1 -1,-1 -2,-2 -1,0 -1,-1 -2,-1 -1,-1 -1,-1 -1,-1l-1 -1 -2 -2c-1,-1 -2,-3 -3,-4 -2,-2 -3,-3 -3,-4 -2,-2 -2,-3 -3,-5 -1,-2 -2,-3 -2,-5 -1,-2 -1,-3 -2,-5 0,-2 -1,-4 -1,-6 0,-2 -1,-4 -1,-5 0,-2 0,-4 0,-6 0,-8 1,-15 3,-23 1,-7 3,-14 6,-21 2,-9 5,-18 10,-28 4,-9 9,-18 15,-27 5,-8 11,-17 18,-24 6,-8 13,-14 19,-20 7,-5 13,-9 19,-12 6,-3 12,-4 17,-3 8,1 14,4 19,8 5,5 9,9 10,14 2,4 3,8 2,12 0,3 -2,5 -4,6 -3,0 -4,0 -5,-1 -1,-1 -2,-2 -2,-3 0,-1 0,-2 -1,-3 0,-1 -1,-1 -1,-2 -1,-1 -3,-2 -5,-2 -1,0 -4,1 -7,3 -2,1 -6,3 -10,7 -4,4 -9,9 -14,15 -6,6 -11,14 -17,23 -7,10 -12,19 -17,28 -5,9 -8,17 -10,23 -3,7 -3,10 0,10 1,1 4,0 7,-3 4,-3 8,-6 13,-10 5,-5 10,-10 16,-16 6,-5 11,-11 16,-17 6,-6 10,-12 14,-18 5,-6 8,-11 10,-16 0,-1 0,-2 0,-3 0,-1 0,-3 0,-4 0,-1 0,-1 0,-2 0,-2 1,-3 3,-4 2,-1 4,-2 7,-2 2,0 5,1 7,2 2,1 4,3 5,5 1,3 2,6 3,9z"/>
    <path id="7" class="fil3" d="M3057 1330c6,-3 11,-4 16,-4 6,1 10,3 14,5 3,3 6,6 8,9 2,4 3,7 2,9 0,3 -1,4 -3,5 -1,1 -2,1 -3,1 -2,0 -3,-1 -5,-2 -5,-1 -11,0 -17,5 -6,4 -12,10 -19,18 -6,8 -13,17 -20,28 -6,10 -13,22 -19,33 -14,27 -29,58 -44,93 -1,2 -1,3 -2,5 -1,1 -2,2 -2,4 -3,4 -6,6 -9,6 -3,-1 -6,-2 -9,-4 -4,-2 -6,-5 -6,-9 -1,-5 -2,-9 -1,-13 0,-4 1,-8 1,-11 1,-3 1,-5 1,-5 3,-9 4,-16 6,-22 1,-6 2,-11 3,-13 3,-18 5,-34 6,-47 1,-13 1,-24 1,-33 0,-10 -1,-19 -3,-27 0,0 0,-1 0,-2 0,-2 0,-3 2,-5 3,-2 7,-3 12,-1 5,1 9,4 12,8 5,6 9,13 10,21 1,9 1,17 1,24 0,16 -2,31 -4,46 8,-20 16,-38 23,-52 7,-15 14,-27 20,-37 6,-10 11,-17 16,-22 5,-6 9,-9 12,-11z"/>
    <path id="8" class="fil3" d="M3141 1465c3,0 5,3 6,8 0,6 -1,11 -3,17 -2,7 -5,13 -9,19 -5,6 -10,12 -16,16 -6,5 -13,9 -21,11 -8,3 -18,4 -28,3 -9,-1 -17,-4 -24,-9 -6,-4 -12,-10 -17,-18 -4,-8 -6,-20 -5,-35 1,-10 4,-20 7,-30 4,-8 8,-17 15,-27 6,-10 15,-20 27,-28 5,-5 11,-8 16,-11 5,-2 11,-4 16,-5 6,-1 11,-1 16,1 9,4 14,10 16,17 1,8 1,14 -2,20 -1,4 -4,9 -7,15 -4,6 -9,11 -17,17 6,-2 12,-5 19,-7 7,-2 14,-5 21,-7 8,-3 17,-5 26,-8 9,-2 18,-5 27,-7 5,-1 10,-2 14,-3 5,-1 9,-2 14,-3 5,-1 10,-2 15,-3 5,0 10,-1 15,-1 5,-1 10,-1 15,-2 5,0 10,0 15,0 2,1 4,1 7,1 2,0 5,0 7,1l8 1c1,1 2,1 3,1 1,0 2,1 4,1l7 3 6 4c4,2 7,6 10,10 1,2 2,4 3,7l2 3c0,0 0,1 0,1 0,1 0,2 1,2l0 2c0,0 0,0 0,1 0,0 0,0 0,0l0 4 0 5 0 -1c0,0 0,-1 0,-1l0 -3c-1,-1 -1,-2 -1,-4 -1,-1 -1,-2 -2,-4 0,-2 -1,-4 -1,-5 -1,-2 -2,-4 -3,-5l-1 -1 -4 -3c-1,-2 -3,-3 -5,-5 -5,-3 -10,-5 -15,-6 -6,-1 -12,-2 -19,-2 -7,-1 -14,-1 -22,0 -7,0 -15,1 -23,2 -8,2 -17,3 -26,5 -9,2 -18,4 -28,6 -10,3 -19,5 -29,8 -11,3 -21,6 -32,9 -10,3 -21,7 -32,10l-19 7c-6,3 -14,5 -23,8 -4,9 -6,18 -7,25 0,7 0,13 2,19 1,6 6,10 13,12 7,2 13,2 20,0 6,-2 11,-6 16,-10 5,-5 10,-10 13,-16 4,-6 6,-12 8,-17 1,-1 1,-3 2,-4 1,-2 2,-4 3,-5 1,-2 2,-4 3,-5 1,-1 2,-1 3,-1zm-29 -41c1,-3 2,-5 3,-7 0,-2 0,-4 -1,-6 -1,-1 -3,-2 -5,-2 -3,0 -6,1 -10,4 -4,2 -7,5 -11,9 -3,4 -6,7 -9,11 -3,4 -5,7 -6,10 -2,3 -2,4 -2,4 3,0 6,-1 10,-2 3,-2 7,-4 11,-6 4,-2 8,-5 11,-8 4,-2 7,-5 9,-7z"/>
    <path id="9" class="fil3" d="M3283 1239c3,1 6,3 8,5 2,3 3,6 2,9 0,2 -1,4 -3,6 -1,1 -1,2 -2,3 -4,4 -7,9 -10,13 -3,4 -5,7 -7,10 -3,4 -5,7 -6,10 -9,16 -17,31 -25,47 -7,16 -14,32 -20,47 -6,15 -12,30 -17,45 -5,14 -10,27 -14,39 -1,4 -2,9 -3,13 -2,4 -3,7 -4,11 -4,17 -5,26 -2,28l1 0 2 2c1,3 1,5 0,6 -2,4 -5,6 -9,7 -3,0 -5,0 -6,0 -2,-1 -3,-1 -5,-2 -1,-1 -3,-2 -4,-3 -2,-2 -4,-5 -4,-8 -1,-3 -2,-6 -3,-8 0,-4 0,-6 0,-9 0,-6 1,-14 3,-22 1,-8 3,-16 5,-24 2,-8 4,-15 7,-22 6,-21 13,-41 20,-61 8,-21 15,-39 22,-56 7,-17 13,-31 18,-43 5,-12 9,-21 11,-25 2,-6 6,-10 10,-13 3,-3 8,-5 12,-6 4,-1 8,-1 12,-1 4,0 8,1 11,2z"/>
    <path class="fil3" d="M616 3851l-76 0 0 39 76 0c9,0 15,-1 19,-5 4,-3 6,-8 6,-14 0,-7 -2,-12 -6,-15 -4,-3 -11,-5 -19,-5zm9 64l-85 0 0 55 85 0c9,0 16,-3 21,-8 5,-4 7,-11 7,-20 0,-8 -2,-15 -7,-20 -5,-5 -12,-7 -21,-7zm-111 79l0 -167 103 0c17,0 29,4 38,11 9,7 13,17 13,30 0,7 -1,13 -4,18 -3,6 -7,10 -12,13 10,6 17,12 21,19 5,8 7,16 7,26 0,15 -5,27 -15,36 -11,9 -25,14 -43,14l-108 0z"/>
    <path id="1" class="fil3" d="M713 3923l26 0 0 17c0,12 4,21 11,27 8,5 20,8 36,8 17,0 28,-3 34,-10 6,-7 10,-20 10,-39l0 -99 26 0 0 108c0,23 -6,39 -17,49 -11,10 -30,15 -56,15 -24,0 -41,-5 -53,-14 -12,-9 -17,-23 -17,-41l0 -21z"/>
    <polygon id="2" class="fil3" points="950,3994 950,3850 879,3850 879,3827 1046,3827 1046,3850 976,3850 976,3994 "/>
    <path id="3" class="fil3" d="M1073 3827l26 0 0 107c0,16 4,27 11,33 8,5 23,8 45,8 23,0 38,-3 45,-8 8,-6 12,-17 12,-33l0 -107 26 0 0 114c0,20 -7,35 -20,44 -13,9 -34,14 -63,14 -29,0 -50,-5 -63,-14 -13,-9 -19,-23 -19,-44l0 -114z"/>
    <polygon id="4" class="fil3" points="1468,3994 1468,3850 1397,3850 1397,3827 1564,3827 1564,3850 1494,3850 1494,3994 "/>
    <path id="5" class="fil3" d="M1617 3896l88 0c9,0 16,-1 21,-5 5,-4 7,-10 7,-17 0,-8 -2,-13 -7,-17 -5,-4 -12,-6 -21,-6l-88 0 0 45zm0 25l0 73 -26 0 0 -167 114 0c17,0 31,4 40,13 10,8 15,19 15,34 0,12 -4,22 -12,31 -7,8 -17,14 -29,16l46 73 -28 0 -48 -73 -72 0z"/>
    <path id="6" class="fil3" d="M1829 3929l65 0 -33 -64 -32 64zm-61 65l85 -167 16 0 86 167 -28 0 -22 -43 -88 0 -21 43 -28 0z"/>
    <polygon id="7" class="fil3" points="2037,3994 2023,3994 1939,3827 1967,3827 2030,3952 2092,3827 2120,3827 "/>
    <polygon id="8" class="fil3" points="2153,3994 2153,3827 2309,3827 2309,3851 2179,3851 2179,3893 2264,3893 2264,3917 2179,3917 2179,3970 2316,3970 2316,3994 "/>
    <polygon id="9" class="fil3" points="2354,3994 2354,3827 2380,3827 2380,3970 2504,3970 2504,3994 "/>
    <path id="10" class="fil3" d="M2695 3929l65 0 -32 -64 -33 64zm-60 65l85 -167 16 0 86 167 -28 0 -22 -43 -88 0 -22 43 -27 0z"/>
    <path id="11" class="fil3" d="M2960 3929l0 -24 69 0 0 50c-10,15 -23,25 -38,33 -16,7 -34,11 -54,11 -31,0 -56,-8 -76,-25 -19,-17 -29,-38 -29,-63 0,-26 10,-47 30,-63 19,-17 44,-26 75,-26 19,0 36,4 51,10 15,7 27,17 37,30l-20 14c-7,-9 -16,-16 -28,-22 -12,-5 -26,-8 -40,-8 -23,0 -42,7 -56,19 -15,12 -22,27 -22,46 0,18 7,33 22,45 14,12 33,19 56,19 14,0 27,-3 40,-8 12,-5 20,-12 25,-20l0 -18 -42 0z"/>
    <polygon id="12" class="fil3" points="3076,3994 3076,3827 3233,3827 3233,3851 3102,3851 3102,3893 3188,3893 3188,3917 3102,3917 3102,3970 3240,3970 3240,3994 "/>
    <polygon id="13" class="fil3" points="3278,3994 3278,3827 3291,3827 3397,3944 3397,3827 3423,3827 3423,3994 3409,3994 3303,3877 3303,3994 "/>
    <path id="14" class="fil3" d="M3657 3953c-10,15 -22,26 -38,34 -15,8 -33,12 -53,12 -29,0 -53,-8 -72,-25 -19,-17 -28,-38 -28,-63 0,-26 9,-47 28,-63 19,-17 43,-26 72,-26 19,0 35,4 50,11 15,7 27,16 36,29l-21 14c-7,-9 -16,-17 -27,-22 -11,-5 -24,-8 -37,-8 -22,0 -40,7 -54,19 -14,12 -21,27 -21,46 0,18 7,33 21,45 15,12 32,19 54,19 14,0 27,-3 39,-9 11,-6 21,-15 30,-27l21 14z"/>
    <polygon id="15" class="fil3" points="3740,3994 3740,3909 3664,3827 3697,3827 3753,3886 3807,3827 3842,3827 3765,3908 3765,3994 "/>
   </g>
   <rect class="fil4" width="4101" height="4101"/>
  </g>
 </g>
</svg>
